<svg width="55" height="56" viewBox="0 0 55 56" fill="none" xmlns="http://www.w3.org/2000/svg">
<g clip-path="url(#clip0_236_299)">
<rect y="0.420044" width="55" height="55" rx="27.5" fill="white"/>
<path d="M19.0972 40.845L39.2028 27.92L19.0972 14.995V40.845ZM26.2778 56.6423C22.3045 56.6423 18.5706 55.8878 15.0761 54.379C11.5816 52.872 8.54179 50.826 5.95679 48.241C3.37179 45.656 1.32581 42.6162 -0.181146 39.1217C-1.69002 35.6272 -2.44446 31.8933 -2.44446 27.92C-2.44446 23.9468 -1.69002 20.2129 -0.181146 16.7184C1.32581 13.2238 3.37179 10.1841 5.95679 7.59907C8.54179 5.01407 11.5816 2.96713 15.0761 1.45825C18.5706 -0.0487055 22.3045 -0.802185 26.2778 -0.802185C30.251 -0.802185 33.9849 -0.0487055 37.4794 1.45825C40.974 2.96713 44.0137 5.01407 46.5987 7.59907C49.1837 10.1841 51.2297 13.2238 52.7367 16.7184C54.2456 20.2129 55 23.9468 55 27.92C55 31.8933 54.2456 35.6272 52.7367 39.1217C51.2297 42.6162 49.1837 45.656 46.5987 48.241C44.0137 50.826 40.974 52.872 37.4794 54.379C33.9849 55.8878 30.251 56.6423 26.2778 56.6423Z" fill="#D99651"/>
</g>
<defs>
<clipPath id="clip0_236_299">
<rect y="0.420044" width="55" height="55" rx="27.5" fill="white"/>
</clipPath>
</defs>
</svg>
