<svg width="13" height="11" viewBox="0 0 13 11" fill="none" xmlns="http://www.w3.org/2000/svg">
<path d="M1.04998 0.311401C0.810078 0.618791 0.750932 0.996382 0.843624 1.43244C0.954128 1.95244 1.28853 2.53844 1.77186 3.09019C2.73856 4.19369 4.29898 5.14761 5.6872 5.29223L5.78423 5.30262L5.84672 5.36548L10.955 10.5459C11.4642 10.6481 11.7929 10.5845 11.9639 10.4423C12.1361 10.299 12.2156 10.0222 12.088 9.58303L1.05003 0.311378L1.04998 0.311401ZM10.9181 0.362503L8.0634 2.76071C7.74768 3.02591 7.74494 3.31772 7.90796 3.63656L7.9754 3.76851L7.85205 3.86798L6.89338 4.63605L7.67201 5.29015L8.58219 4.48267L8.70059 4.37768L8.85761 4.43502C9.25661 4.57946 9.63498 4.57354 9.92813 4.32726L12.7828 1.92905L12.412 1.61753L10.5555 3.17652L10.2085 2.88438L12.0642 1.32543L11.6687 0.993111L9.81305 2.5521L9.46523 2.25994L11.3209 0.700994L10.9181 0.362503ZM5.54986 5.7129L0.671737 9.62311C0.551367 10.042 0.628483 10.3036 0.790976 10.4388C0.953523 10.5741 1.26793 10.6361 1.76036 10.5362L6.31786 6.49204L5.54986 5.7129Z" fill="#D99651"/>
</svg>
