<svg width="16" height="12" viewBox="0 0 16 12" fill="none" xmlns="http://www.w3.org/2000/svg">
<path d="M12.6562 6.03122C12.6562 7.2247 12.1821 8.36929 11.3382 9.21321C10.4943 10.0571 9.34972 10.5312 8.15625 10.5312C6.96278 10.5312 5.81818 10.0571 4.97427 9.21321C4.13036 8.36929 3.65625 7.2247 3.65625 6.03122C3.65625 4.83775 4.13036 3.69316 4.97427 2.84924C5.81818 2.00533 6.96278 1.53122 8.15625 1.53122C9.34972 1.53122 10.4943 2.00533 11.3382 2.84924C12.1821 3.69316 12.6562 4.83775 12.6562 6.03122ZM8.15625 9.96872C8.67333 9.96872 9.18535 9.86688 9.66307 9.669C10.1408 9.47112 10.5749 9.18109 10.9405 8.81546C11.3061 8.44983 11.5961 8.01576 11.794 7.53804C11.9919 7.06032 12.0937 6.5483 12.0938 6.03122C12.0937 5.51414 11.9919 5.00213 11.794 4.52441C11.5961 4.04669 11.3061 3.61262 10.9405 3.24699C10.5749 2.88136 10.1408 2.59133 9.66307 2.39345C9.18535 2.19557 8.67333 2.09372 8.15625 2.09372C7.11196 2.09372 6.11044 2.50857 5.37202 3.24699C4.63359 3.98542 4.21875 4.98693 4.21875 6.03122C4.21875 7.07551 4.63359 8.07703 5.37202 8.81546C6.11044 9.55388 7.11196 9.96872 8.15625 9.96872ZM15.7444 1.21622C15.7444 0.709975 15.3338 0.29935 14.8275 0.29935C14.0963 0.29935 13.5113 0.889974 13.5169 1.6156V4.73747C13.5169 5.44229 13.9252 6.07341 14.5575 6.35916V11.2062C14.5575 11.4987 14.7937 11.735 15.0862 11.735H15.2156C15.5081 11.735 15.7444 11.4987 15.7444 11.2062V1.21622ZM2.71125 0.29935C2.6098 0.29935 2.51251 0.339649 2.44078 0.411381C2.36905 0.483114 2.32875 0.580404 2.32875 0.681849V2.19497C2.32875 2.30747 2.23875 2.39185 2.13187 2.39185C2.01937 2.39185 1.935 2.30185 1.935 2.19497V0.698725C1.935 0.4906 1.77188 0.304975 1.56375 0.29935C1.34438 0.293725 1.16438 0.468099 1.16438 0.681849V2.19497C1.16438 2.30747 1.07438 2.39185 0.9675 2.39185C0.855 2.39185 0.770625 2.30185 0.770625 2.19497V0.698725C0.770625 0.4906 0.6075 0.304975 0.399375 0.29935C0.18 0.293725 0 0.468099 0 0.681849V3.2581C0 3.76547 0.245812 4.21829 0.623812 4.50066C0.961875 4.69135 0.961875 5.56435 0.961875 5.56435V11.2006C0.961875 11.4931 1.19813 11.7293 1.49063 11.7293H1.62C1.9125 11.7293 2.14875 11.4931 2.14875 11.2006V5.56435C2.14875 5.56435 2.14875 4.72566 2.48681 4.50066C2.68032 4.35638 2.83747 4.16892 2.94577 3.95321C3.05407 3.73749 3.11052 3.49947 3.11063 3.2581V0.681849C3.10493 0.579349 3.06052 0.482835 2.98638 0.411828C2.91224 0.34082 2.8139 0.300617 2.71125 0.29935Z" fill="#D99651"/>
</svg>
