<svg width="41" height="41" viewBox="0 0 41 41" fill="none" xmlns="http://www.w3.org/2000/svg">
<g filter="url(#filter0_b_244_85)">
<rect width="41" height="41" rx="10" fill="#D99651"/>
</g>
<g clip-path="url(#clip0_244_85)">
<path d="M21.8722 15.226L21.8718 15.2265L21.2177 15.9005L20.5 16.64L19.7824 15.9005L19.1283 15.2265L19.1272 15.2253C17.7839 13.8366 15.6712 13.6707 14.2994 14.8391L21.8722 15.226ZM21.8722 15.226C23.2194 13.836 25.3293 13.6711 26.7007 14.8391L21.8722 15.226ZM26.9569 20.2858L26.9571 20.2856C28.4304 18.7651 28.3406 16.2394 26.7012 14.8396L26.9569 20.2858ZM26.9569 20.2858L20.5323 26.9195C20.5235 26.9286 20.5168 26.9321 20.5129 26.9338C20.5083 26.9357 20.5034 26.9367 20.4984 26.9367C20.4933 26.9367 20.4884 26.9357 20.4839 26.9338C20.4799 26.9321 20.4733 26.9286 20.4645 26.9195L14.0403 20.2862C14.0402 20.2861 14.0401 20.286 14.04 20.2859M26.9569 20.2858L14.04 20.2859M14.04 20.2859C14.04 20.2859 14.0399 20.2858 14.0399 20.2858M14.04 20.2859L14.0399 20.2858M14.0399 20.2858C12.5694 18.7651 12.6596 16.2389 14.2993 14.8393L14.0399 20.2858Z" fill="white" stroke="white" stroke-width="2"/>
</g>
<defs>
<filter id="filter0_b_244_85" x="-20" y="-20" width="81" height="81" filterUnits="userSpaceOnUse" color-interpolation-filters="sRGB">
<feFlood flood-opacity="0" result="BackgroundImageFix"/>
<feGaussianBlur in="BackgroundImageFix" stdDeviation="10"/>
<feComposite in2="SourceAlpha" operator="in" result="effect1_backgroundBlur_244_85"/>
<feBlend mode="normal" in="SourceGraphic" in2="effect1_backgroundBlur_244_85" result="shape"/>
</filter>
<clipPath id="clip0_244_85">
<rect width="17" height="17" fill="white" transform="translate(12 12)"/>
</clipPath>
</defs>
</svg>
