<svg width="14" height="13" viewBox="0 0 14 13" fill="none" xmlns="http://www.w3.org/2000/svg">
<path d="M1.04998 1.3114C0.810078 1.61879 0.750932 1.99638 0.843624 2.43244C0.954128 2.95244 1.28853 3.53844 1.77186 4.09019C2.73856 5.19369 4.29898 6.14761 5.6872 6.29223L5.78423 6.30262L5.84672 6.36548L10.955 11.5459C11.4642 11.6481 11.7929 11.5845 11.9639 11.4423C12.1361 11.299 12.2156 11.0222 12.088 10.583L1.05003 1.31138L1.04998 1.3114ZM10.9181 1.3625L8.0634 3.76071C7.74768 4.02591 7.74494 4.31772 7.90796 4.63656L7.9754 4.76851L7.85205 4.86798L6.89338 5.63605L7.67201 6.29015L8.58219 5.48267L8.70059 5.37768L8.85761 5.43502C9.25661 5.57946 9.63498 5.57354 9.92813 5.32726L12.7828 2.92905L12.412 2.61753L10.5555 4.17652L10.2085 3.88438L12.0642 2.32543L11.6687 1.99311L9.81305 3.5521L9.46523 3.25994L11.3209 1.70099L10.9181 1.3625ZM5.54986 6.7129L0.671737 10.6231C0.551367 11.042 0.628483 11.3036 0.790976 11.4388C0.953523 11.5741 1.26793 11.6361 1.76036 11.5362L6.31786 7.49204L5.54986 6.7129Z" fill="#D99651"/>
</svg>
