<svg width="38" height="34" viewBox="0 0 38 34" fill="none" xmlns="http://www.w3.org/2000/svg">
<path d="M4.44136 19.0306L18.3076 32.3357C18.6352 32.6499 18.7989 32.8071 19 32.8071C19.2011 32.8071 19.3648 32.6499 19.6924 32.3357L33.5586 19.0306C34.1738 18.4404 34.4814 18.1452 34.7271 17.8672C37.3841 14.86 37.7292 10.457 35.5732 7.07253C35.3738 6.75962 35.116 6.42016 34.6003 5.74123L33.9011 4.82074C33.7196 4.58177 33.6288 4.46228 33.5621 4.37914C29.9116 -0.169882 22.7768 0.591029 20.1677 5.80763C20.12 5.90297 20.0565 6.03891 19.9295 6.31079C19.9097 6.3532 19.8998 6.37441 19.8931 6.38754C19.5237 7.12117 18.4763 7.12117 18.1069 6.38754C18.1002 6.37441 18.0903 6.3532 18.0705 6.31079C17.9435 6.03891 17.88 5.90297 17.8323 5.80763C15.2232 0.591029 8.08845 -0.169882 4.43791 4.37914C4.37119 4.46228 4.28044 4.58176 4.09894 4.8207L4.0989 4.82075L3.39971 5.74124C2.88401 6.42016 2.62616 6.75962 2.42683 7.07253C0.270793 10.457 0.615907 14.86 3.27293 17.8672C3.51858 18.1452 3.82617 18.4404 4.44135 19.0306L4.44136 19.0306Z" stroke="#8B8B8B" stroke-width="2"/>
</svg>
