<svg width="14" height="11" viewBox="0 0 14 11" fill="none" xmlns="http://www.w3.org/2000/svg">
<path d="M11.25 5.48226C11.25 6.54313 10.8286 7.56054 10.0784 8.31069C9.32828 9.06083 8.31087 9.48226 7.25 9.48226C6.18913 9.48226 5.17172 9.06083 4.42157 8.31069C3.67143 7.56054 3.25 6.54313 3.25 5.48226C3.25 4.4214 3.67143 3.40398 4.42157 2.65383C5.17172 1.90369 6.18913 1.48226 7.25 1.48226C8.31087 1.48226 9.32828 1.90369 10.0784 2.65383C10.8286 3.40398 11.25 4.4214 11.25 5.48226ZM7.25 8.98226C7.70963 8.98226 8.16475 8.89173 8.58939 8.71584C9.01403 8.53995 9.39987 8.28214 9.72487 7.95714C10.0499 7.63213 10.3077 7.24629 10.4836 6.82165C10.6595 6.39701 10.75 5.94189 10.75 5.48226C10.75 5.02263 10.6595 4.56751 10.4836 4.14287C10.3077 3.71823 10.0499 3.33239 9.72487 3.00739C9.39987 2.68238 9.01403 2.42458 8.58939 2.24868C8.16475 2.07279 7.70963 1.98226 7.25 1.98226C6.32174 1.98226 5.4315 2.35101 4.77513 3.00739C4.11875 3.66377 3.75 4.554 3.75 5.48226C3.75 6.41052 4.11875 7.30076 4.77513 7.95714C5.4315 8.61351 6.32174 8.98226 7.25 8.98226ZM13.995 1.20226C13.995 0.752262 13.63 0.387262 13.18 0.387262C12.53 0.387262 12.01 0.912262 12.015 1.55726V4.33226C12.015 4.95876 12.378 5.51976 12.94 5.77376V10.0823C12.94 10.3423 13.15 10.5523 13.41 10.5523H13.525C13.785 10.5523 13.995 10.3423 13.995 10.0823V1.20226ZM2.41 0.387262C2.31983 0.387262 2.23335 0.423083 2.16958 0.486845C2.10582 0.550608 2.07 0.637088 2.07 0.727262V2.07226C2.07 2.17226 1.99 2.24726 1.895 2.24726C1.795 2.24726 1.72 2.16726 1.72 2.07226V0.742262C1.72 0.557262 1.575 0.392262 1.39 0.387262C1.195 0.382262 1.035 0.537262 1.035 0.727262V2.07226C1.035 2.17226 0.955 2.24726 0.86 2.24726C0.76 2.24726 0.685 2.16726 0.685 2.07226V0.742262C0.685 0.557262 0.54 0.392262 0.355 0.387262C0.16 0.382262 0 0.537262 0 0.727262V3.01726C0 3.46826 0.2185 3.87076 0.5545 4.12176C0.855 4.29126 0.855 5.06726 0.855 5.06726V10.0773C0.855 10.3373 1.065 10.5473 1.325 10.5473H1.44C1.7 10.5473 1.91 10.3373 1.91 10.0773V5.06726C1.91 5.06726 1.91 4.32176 2.2105 4.12176C2.3825 3.99351 2.5222 3.82688 2.61846 3.63513C2.71473 3.44339 2.7649 3.23182 2.765 3.01726V0.727262C2.75994 0.63615 2.72046 0.55036 2.65456 0.487242C2.58866 0.424124 2.50125 0.388389 2.41 0.387262Z" fill="#F8F8F8"/>
</svg>
