<svg width="13" height="13" viewBox="0 0 13 13" fill="none" xmlns="http://www.w3.org/2000/svg">
<path d="M0.630635 0.0830761C0.390736 0.448976 0.33159 0.898438 0.424282 1.41749C0.534786 2.03647 0.869192 2.73402 1.35252 3.39078C2.31922 4.70433 3.87964 5.83981 5.26786 6.01196L5.36489 6.02433L5.42738 6.09915L10.5357 12.2657C11.0448 12.3873 11.3736 12.3116 11.5445 12.1423C11.7168 11.9717 11.7962 11.6422 11.6686 11.1195L0.630687 0.0830498L0.630635 0.0830761ZM10.4987 0.143906L7.64406 2.99859C7.32834 3.31427 7.3256 3.66162 7.48862 4.04115L7.55605 4.19822L7.43271 4.31662L6.47404 5.23088L7.25267 6.00949L8.16285 5.04831L8.28125 4.92334L8.43827 4.99159C8.83727 5.16353 9.21564 5.15647 9.50879 4.86332L12.3635 2.00864L11.9927 1.63782L10.1361 3.49355L9.78916 3.1458L11.6448 1.29012L11.2494 0.894544L9.39371 2.75027L9.04589 2.4025L10.9016 0.546825L10.4987 0.143906ZM5.13052 6.5127L0.252395 11.1672C0.132025 11.6658 0.209141 11.9772 0.371634 12.1382C0.534181 12.2991 0.848591 12.373 1.34102 12.2541L5.89852 7.44014L5.13052 6.5127Z" fill="white"/>
</svg>
