<svg width="16" height="15" viewBox="0 0 16 15" fill="none" xmlns="http://www.w3.org/2000/svg">
<path d="M2.7113 9.32341V11.48C3.3701 12.2879 4.2006 12.9388 5.14247 13.3855C6.08433 13.8322 7.11388 14.0635 8.1563 14.0625C10.5886 14.0625 12.7328 12.8272 13.9951 10.9502V7.92729C13.5631 10.764 11.1134 12.9375 8.1563 12.9375C5.70718 12.9375 3.60624 11.4469 2.7113 9.32341ZM12.9544 3.58648V2.61785C12.9528 2.40422 12.9878 2.19189 13.0579 1.9901C11.7468 0.711844 9.98743 -0.0024805 8.1563 -2.27966e-05C6.51766 -0.00245499 4.93005 0.569811 3.6698 1.61716L3.67262 1.65148L3.67318 1.66666V3.18541C4.22713 2.53837 4.91476 2.01911 5.68871 1.6634C6.46266 1.30769 7.30453 1.124 8.1563 1.12498C10.1329 1.12498 11.8823 2.09585 12.9544 3.58648Z" fill="#D99651"/>
<path d="M12.6562 7.03122C12.6562 8.2247 12.1821 9.36929 11.3382 10.2132C10.4943 11.0571 9.34972 11.5312 8.15625 11.5312C6.96278 11.5312 5.81818 11.0571 4.97427 10.2132C4.13036 9.36929 3.65625 8.2247 3.65625 7.03122C3.65625 5.83775 4.13036 4.69316 4.97427 3.84924C5.81818 3.00533 6.96278 2.53122 8.15625 2.53122C9.34972 2.53122 10.4943 3.00533 11.3382 3.84924C12.1821 4.69316 12.6562 5.83775 12.6562 7.03122ZM8.15625 10.9687C8.67333 10.9687 9.18535 10.8669 9.66307 10.669C10.1408 10.4711 10.5749 10.1811 10.9405 9.81546C11.3061 9.44983 11.5961 9.01576 11.794 8.53804C11.9919 8.06032 12.0938 7.5483 12.0938 7.03122C12.0938 6.51414 11.9919 6.00213 11.794 5.52441C11.5961 5.04669 11.3061 4.61262 10.9405 4.24699C10.5749 3.88136 10.1408 3.59133 9.66307 3.39345C9.18535 3.19557 8.67333 3.09372 8.15625 3.09372C7.11196 3.09372 6.11044 3.50857 5.37202 4.24699C4.63359 4.98542 4.21875 5.98693 4.21875 7.03122C4.21875 8.07551 4.63359 9.07703 5.37202 9.81546C6.11044 10.5539 7.11196 10.9687 8.15625 10.9687ZM15.7444 2.21622C15.7444 1.70997 15.3338 1.29935 14.8275 1.29935C14.0963 1.29935 13.5113 1.88997 13.5169 2.6156V5.73747C13.5169 6.44229 13.9252 7.07341 14.5575 7.35916V12.2062C14.5575 12.4987 14.7937 12.735 15.0863 12.735H15.2156C15.5081 12.735 15.7444 12.4987 15.7444 12.2062V2.21622ZM2.71125 1.29935C2.6098 1.29935 2.51251 1.33965 2.44078 1.41138C2.36905 1.48311 2.32875 1.5804 2.32875 1.68185V3.19497C2.32875 3.30747 2.23875 3.39185 2.13188 3.39185C2.01938 3.39185 1.935 3.30185 1.935 3.19497V1.69872C1.935 1.4906 1.77188 1.30497 1.56375 1.29935C1.34438 1.29372 1.16438 1.4681 1.16438 1.68185V3.19497C1.16438 3.30747 1.07438 3.39185 0.9675 3.39185C0.855 3.39185 0.770625 3.30185 0.770625 3.19497V1.69872C0.770625 1.4906 0.6075 1.30497 0.399375 1.29935C0.18 1.29372 0 1.4681 0 1.68185V4.2581C0 4.76547 0.245812 5.21829 0.623812 5.50066C0.961875 5.69135 0.961875 6.56435 0.961875 6.56435V12.2006C0.961875 12.4931 1.19813 12.7293 1.49063 12.7293H1.62C1.9125 12.7293 2.14875 12.4931 2.14875 12.2006V6.56435C2.14875 6.56435 2.14875 5.72566 2.48681 5.50066C2.68032 5.35638 2.83747 5.16892 2.94577 4.95321C3.05407 4.73749 3.11052 4.49947 3.11063 4.2581V1.68185C3.10493 1.57935 3.06052 1.48284 2.98638 1.41183C2.91224 1.34082 2.8139 1.30062 2.71125 1.29935Z" fill="#D99651"/>
</svg>
