<svg width="17" height="17" viewBox="0 0 17 17" fill="none" xmlns="http://www.w3.org/2000/svg">
<g clip-path="url(#clip0_3_460)">
<path d="M9.87217 3.22603L9.87171 3.2265L9.21761 3.90053L8.49998 4.64002L7.78235 3.90053L7.12824 3.2265L7.1271 3.22532C5.78385 1.83658 3.6711 1.67072 2.29937 2.83914L9.87217 3.22603ZM9.87217 3.22603C11.2193 1.836 13.3293 1.67106 14.7006 2.83914L9.87217 3.22603ZM14.9568 8.28576L14.957 8.28556C16.4304 6.76512 16.3405 4.2394 14.7012 2.83964L14.9568 8.28576ZM14.9568 8.28576L8.53222 14.9195C8.52342 14.9286 8.51677 14.9321 8.51284 14.9338C8.50826 14.9357 8.50337 14.9367 8.49832 14.9367C8.49327 14.9367 8.48838 14.9357 8.4838 14.9338C8.47986 14.9321 8.47322 14.9286 8.46442 14.9195L2.04023 8.28619C2.04013 8.2861 2.04004 8.286 2.03995 8.2859M14.9568 8.28576L2.03995 8.2859M2.03995 8.2859C2.0399 8.28586 2.03985 8.28581 2.03981 8.28576M2.03995 8.2859L2.03981 8.28576M2.03981 8.28576C0.569346 6.76509 0.659513 4.23894 2.2992 2.83929L2.03981 8.28576Z" stroke="white" stroke-width="2"/>
</g>
<defs>
<clipPath id="clip0_3_460">
<rect width="17" height="17" fill="white"/>
</clipPath>
</defs>
</svg>
