<svg width="29" height="24" viewBox="0 0 29 24" fill="none" xmlns="http://www.w3.org/2000/svg">
<path d="M6.81865 11.3619H23.9386C24.1657 11.3619 24.3834 11.4377 24.5439 11.5726C24.7045 11.7074 24.7946 11.8903 24.7946 12.0811C24.7946 12.2718 24.7045 12.4547 24.5439 12.5896C24.3834 12.7244 24.1657 12.8002 23.9386 12.8002H6.81865C6.59162 12.8002 6.37389 12.7244 6.21336 12.5896C6.05283 12.4547 5.96265 12.2718 5.96265 12.0811C5.96265 11.8903 6.05283 11.7074 6.21336 11.5726C6.37389 11.4377 6.59162 11.3619 6.81865 11.3619Z" fill="white"/>
<path d="M7.17302 12.081L14.2727 18.044C14.4334 18.179 14.5237 18.3622 14.5237 18.5531C14.5237 18.7441 14.4334 18.9272 14.2727 19.0623C14.1119 19.1973 13.8939 19.2732 13.6666 19.2732C13.4393 19.2732 13.2213 19.1973 13.0606 19.0623L5.35658 12.5902C5.27687 12.5234 5.21362 12.444 5.17047 12.3567C5.12732 12.2693 5.1051 12.1756 5.1051 12.081C5.1051 11.9865 5.12732 11.8928 5.17047 11.8054C5.21362 11.7181 5.27687 11.6387 5.35658 11.5719L13.0606 5.09981C13.2213 4.96478 13.4393 4.88892 13.6666 4.88892C13.8939 4.88892 14.1119 4.96478 14.2727 5.09981C14.4334 5.23484 14.5237 5.41798 14.5237 5.60895C14.5237 5.79991 14.4334 5.98305 14.2727 6.11808L7.17302 12.081Z" fill="white"/>
</svg>
